<svg xmlns="http://www.w3.org/2000/svg" xmlns:xlink="http://www.w3.org/1999/xlink" width="150" height="40.643" viewBox="0 0 150 40.643">
  <defs>
    <clipPath id="clip-path">
      <path id="Path_30" data-name="Path 30" d="M3247.685,693.636h-12.038l-7.616,19.654h12.038Z" transform="translate(-3228.031 -693.636)" fill="#131521"/>
    </clipPath>
    <clipPath id="clip-path-2">
      <path id="Path_31" data-name="Path 31" d="M3144.39,730.636H3133.73l-3.7,9.354h10.659Z" transform="translate(-3130.032 -730.636)" fill="#131521"/>
    </clipPath>
  </defs>
  <g id="logo" transform="translate(-2986.383 -669.04)">
    <g id="Group_5" data-name="Group 5" transform="translate(2986.383 669.04)">
      <g id="Group_2" data-name="Group 2" transform="translate(92.234 0)">
        <g id="Group_1" data-name="Group 1" transform="translate(0)">
          <path id="Path_1" data-name="Path 1" d="M3267.449,694.611l-15.035.013,3.148-7.946,6.412-.005,11.131-28.036h8.547l-4.884,12.486,11.164,28.157h-8.547l-6.89-17.378Z" transform="translate(-3230.166 -658.636)" fill="#fff"/>
          <g id="Mask_Group_1" data-name="Mask Group 1" transform="translate(15.667 3.256)" clip-path="url(#clip-path)">
            <path id="Path_2" data-name="Path 2" d="M3241.986,693.636h-8.547l-5.408,13.955h8.548Z" transform="translate(-3225.703 -690.786)" fill="#39dbbf"/>
          </g>
          <g id="Mask_Group_2" data-name="Mask Group 2" transform="translate(0 11.632)" clip-path="url(#clip-path-2)">
            <path id="Path_3" data-name="Path 3" d="M3141.545,730.636H3133l-2.965,7.5h8.547Z" transform="translate(-3129.132 -729.709)" fill="#39dbbf"/>
          </g>
        </g>
      </g>
      <g id="Group_4" data-name="Group 4" transform="translate(0 5.515)">
        <g id="Group_3" data-name="Group 3" transform="translate(0)">
          <path id="Path_4" data-name="Path 4" d="M3243.6,959.371h.542v-4.748h-1.694a2.093,2.093,0,0,0-1.588.531,2.3,2.3,0,0,0-.5,1.628v2.589h3.241Z" transform="translate(-3213.701 -949.752)" fill="none"/>
          <path id="Path_5" data-name="Path 5" d="M3199.356,956.782v2.589h3.783v-4.748h-1.694a2.1,2.1,0,0,0-1.589.531A2.307,2.307,0,0,0,3199.356,956.782Z" transform="translate(-3182.461 -949.752)" fill="none"/>
          <path id="Path_6" data-name="Path 6" d="M3139.091,956.547h-6.881a2.127,2.127,0,0,1-1.558-.5,2.048,2.048,0,0,1-.5-1.505v-1.865h-1.773v1.979a3.746,3.746,0,0,0,.834,2.637,3.383,3.383,0,0,0,2.6.9h9.057v-7.28h-1.782Z" transform="translate(-3128.384 -946.928)" fill="#fff"/>
          <path id="Path_7" data-name="Path 7" d="M3146.788,937.849a.93.93,0,0,0,.689-.29.942.942,0,0,0,.285-.685.952.952,0,0,0-.285-.693.949.949,0,0,0-1.365,0,.946.946,0,0,0-.29.693.936.936,0,0,0,.29.685A.926.926,0,0,0,3146.788,937.849Z" transform="translate(-3141.672 -935.48)" fill="#fff"/>
          <path id="Path_8" data-name="Path 8" d="M3156.659,937.717a.99.99,0,0,0,.5.132.989.989,0,0,0,.974-.974.947.947,0,0,0-.289-.693.937.937,0,0,0-.685-.289.964.964,0,0,0-.5.136,1.069,1.069,0,0,0-.373.36.909.909,0,0,0,0,.97A1.022,1.022,0,0,0,3156.659,937.717Z" transform="translate(-3149.537 -935.48)" fill="#fff"/>
          <path id="Path_9" data-name="Path 9" d="M3192.764,948.593a3.9,3.9,0,0,0-.855,2.712v4.406h5.555a4.067,4.067,0,0,1-.167,1.295,1.227,1.227,0,0,1-.593.706,2.592,2.592,0,0,1-1.207.228h-2.352v1.667h2.642a3.125,3.125,0,0,0,2.629-1,4.842,4.842,0,0,0,.82-2.892l.018-1.65v-6.407h-3.862A3.388,3.388,0,0,0,3192.764,948.593Zm4.7.72v4.748h-3.782v-2.589a2.3,2.3,0,0,1,.5-1.628,2.092,2.092,0,0,1,1.588-.531Z" transform="translate(-3176.787 -944.442)" fill="#fff"/>
          <path id="Path_10" data-name="Path 10" d="M3241.159,954.886a.972.972,0,0,1,.162-.654.577.577,0,0,1,.329-.151,1.318,1.318,0,0,0-.228-.02h-1.167v-6.407h-3.862a3.387,3.387,0,0,0-2.628.939,3.894,3.894,0,0,0-.855,2.712v4.406h5.555a4.059,4.059,0,0,1-.167,1.295,1.227,1.227,0,0,1-.593.706,2.593,2.593,0,0,1-1.207.228h-2.352v1.667h2.642a3.125,3.125,0,0,0,2.628-1,4.844,4.844,0,0,0,.821-2.892h1.185a1.324,1.324,0,0,0,.231-.02.572.572,0,0,1-.331-.155A.972.972,0,0,1,3241.159,954.886Zm-2.681.653a.728.728,0,0,1-.557.171h-3.958a1.073,1.073,0,0,1-.434-.07.414.414,0,0,1-.219-.246,1.5,1.5,0,0,1-.066-.508.966.966,0,0,1,.163-.654.744.744,0,0,1,.557-.171h.719v-2.589a2.3,2.3,0,0,1,.5-1.628,2.093,2.093,0,0,1,1.588-.531h1.694v4.748h-.542a.73.73,0,0,1,.552.171.989.989,0,0,1,.158.654A1.009,1.009,0,0,1,3238.478,955.539Z" transform="translate(-3208.027 -944.442)" fill="#fff"/>
          <path id="Path_11" data-name="Path 11" d="M3238.992,974.568h-3.96a.744.744,0,0,0-.557.171.966.966,0,0,0-.163.654,1.5,1.5,0,0,0,.066.508.412.412,0,0,0,.219.246,1.073,1.073,0,0,0,.435.07h3.958a.729.729,0,0,0,.557-.171,1.009,1.009,0,0,0,.154-.654.992.992,0,0,0-.158-.654A.731.731,0,0,0,3238.992,974.568Z" transform="translate(-3209.097 -964.949)" fill="#fff"/>
          <path id="Path_12" data-name="Path 12" d="M3307.332,937.522a.988.988,0,0,0,.974-.974.947.947,0,0,0-.289-.693.937.937,0,0,0-.685-.29.975.975,0,0,0-.7.29.945.945,0,0,0,0,1.378A.974.974,0,0,0,3307.332,937.522Z" transform="translate(-3263.972 -935.231)" fill="#fff"/>
          <path id="Path_13" data-name="Path 13" d="M3281.293,956.547H3278.8V951.5h-1.781v5.051h-2.5V951.5h-1.782v5.051h-4.449a1.294,1.294,0,0,0-.229.02.576.576,0,0,0-.328.151,1.389,1.389,0,0,0,0,1.3.57.57,0,0,0,.331.155,1.276,1.276,0,0,0,.226.02h14.787v-7.28h-1.781Z" transform="translate(-3234.435 -946.928)" fill="#fff"/>
          <path id="Path_14" data-name="Path 14" d="M3295.454,937.4a.906.906,0,0,0,.478.136.968.968,0,1,0-.974-.974.905.905,0,0,0,.136.478A1.068,1.068,0,0,0,3295.454,937.4Z" transform="translate(-3255.305 -935.245)" fill="#fff"/>
          <path id="Path_15" data-name="Path 15" d="M3318.092,937.533a.921.921,0,0,0,.68-.29.974.974,0,0,0,0-1.373.925.925,0,0,0-.684-.285.971.971,0,0,0-.689,1.658A.93.93,0,0,0,3318.092,937.533Z" transform="translate(-3272.19 -935.245)" fill="#fff"/>
          <rect id="Rectangle_1" data-name="Rectangle 1" width="1.782" height="6.793" transform="translate(55.053 1.474)" fill="#fff"/>
          <path id="Path_16" data-name="Path 16" d="M3359.221,945.113a1.5,1.5,0,0,1-.066-.509.968.968,0,0,1,.162-.654.742.742,0,0,1,.552-.171H3358.7V934.16h-1.782v9.619h-7.109v1.65h10.063a1.074,1.074,0,0,1-.43-.07A.417.417,0,0,1,3359.221,945.113Z" transform="translate(-3297.099 -934.16)" fill="#fff"/>
          <path id="Path_17" data-name="Path 17" d="M3393.1,975.9a1.5,1.5,0,0,1-.066-.508.968.968,0,0,1,.163-.654,22.405,22.405,0,0,1,2.876-.171h-6.282a.742.742,0,0,0-.552.171.968.968,0,0,0-.163.654,1.511,1.511,0,0,0,.066.508.417.417,0,0,0,.219.246,1.073,1.073,0,0,0,.43.07h6.281a1.068,1.068,0,0,1-.434-.07C3395.534,976.1,3393.142,976.019,3393.1,975.9Z" transform="translate(-3327.017 -964.949)" fill="#fff"/>
          <path id="Path_18" data-name="Path 18" d="M3411.978,975.393a.97.97,0,0,1,.163-.654.744.744,0,0,1,.554-.171h-3.956a22.407,22.407,0,0,0-2.876.171.967.967,0,0,0-.163.654,1.5,1.5,0,0,0,.066.508c.044.118,2.436.2,2.539.246a1.068,1.068,0,0,0,.434.07h3.954a.732.732,0,0,1-.553-.175A.971.971,0,0,1,3411.978,975.393Z" transform="translate(-3339.686 -964.949)" fill="#fff"/>
          <path id="Path_19" data-name="Path 19" d="M3438.311,986.182a.916.916,0,0,0-.68.294.987.987,0,0,0-.285.715.89.89,0,0,0,.131.465,1,1,0,0,0,.355.351.928.928,0,0,0,.478.131.938.938,0,0,0,.689-.285.91.91,0,0,0,.285-.663.988.988,0,0,0-.285-.715A.925.925,0,0,0,3438.311,986.182Z" transform="translate(-3363.798 -973.798)" fill="#fff"/>
          <path id="Path_20" data-name="Path 20" d="M3448.677,986.182a.969.969,0,0,0-.5.136,1.045,1.045,0,0,0-.373.369.963.963,0,0,0-.14.5.855.855,0,0,0,.14.465,1.054,1.054,0,0,0,.373.351.992.992,0,0,0,.5.131.952.952,0,0,0,.483-.131.989.989,0,0,0,.36-.351.89.89,0,0,0,.131-.465.979.979,0,0,0-.289-.715A.929.929,0,0,0,3448.677,986.182Z" transform="translate(-3371.663 -973.798)" fill="#fff"/>
          <path id="Path_21" data-name="Path 21" d="M3436.012,947.655v6.406h-3.224a.744.744,0,0,0-.555.171,1.387,1.387,0,0,0,0,1.3.731.731,0,0,0,.553.175h4.98v-8.057Z" transform="translate(-3359.779 -944.443)" fill="#fff"/>
        </g>
        <path id="Path_22" data-name="Path 22" d="M3128.383,1011.738h1.973l2.912,5.2,2.92-5.2h1.917l-3.955,6.795v4.206h-1.788v-4.206Z" transform="translate(-3128.383 -993.271)" fill="#454a67"/>
        <path id="Path_23" data-name="Path 23" d="M3166.081,1031.421a2.524,2.524,0,0,1,1.853-4.376h3.115v-.259a2.108,2.108,0,0,0-.134-.825.837.837,0,0,0-.437-.444,2.02,2.02,0,0,0-.821-.137h-2.45V1024h2.483a4.338,4.338,0,0,1,1.8.316,2.011,2.011,0,0,1,1,1,4.286,4.286,0,0,1,.319,1.8v4.967h-4.877a2.5,2.5,0,0,1-1.853-.664m1.42-2.721a1.177,1.177,0,0,0-.295.87,1.165,1.165,0,0,0,.295.865,1.189,1.189,0,0,0,.87.291h2.694V1028.4h-2.694a1.179,1.179,0,0,0-.87.3" transform="translate(-3156.602 -1002.616)" fill="#454a67"/>
        <rect id="Rectangle_2" data-name="Rectangle 2" width="1.763" height="11.001" transform="translate(18.134 18.467)" fill="#454a67"/>
        <rect id="Rectangle_3" data-name="Rectangle 3" width="1.763" height="11.001" transform="translate(21.919 18.467)" fill="#454a67"/>
        <path id="Path_24" data-name="Path 24" d="M3235.086,1031.421a2.524,2.524,0,0,1,1.852-4.376h3.115v-.259a2.1,2.1,0,0,0-.134-.825.838.838,0,0,0-.436-.444,2.02,2.02,0,0,0-.821-.137h-2.45V1024h2.483a4.337,4.337,0,0,1,1.8.316,2.011,2.011,0,0,1,1,1,4.282,4.282,0,0,1,.319,1.8v4.967h-4.877a2.5,2.5,0,0,1-1.852-.664m1.42-2.721a1.177,1.177,0,0,0-.295.87,1.165,1.165,0,0,0,.295.865,1.189,1.189,0,0,0,.87.291h2.694V1028.4h-2.694a1.179,1.179,0,0,0-.87.3" transform="translate(-3209.181 -1002.616)" fill="#454a67"/>
        <path id="Path_25" data-name="Path 25" d="M3289.762,1030.71a1.079,1.079,0,0,0,.777-.243,1.265,1.265,0,0,0,0-1.512,1.1,1.1,0,0,0-.777-.235h-1.545a2.4,2.4,0,0,1-1.763-.615,2.355,2.355,0,0,1-.622-1.755,2.328,2.328,0,0,1,.618-1.74,2.422,2.422,0,0,1,1.768-.606h3.537v1.375h-3.091a1.148,1.148,0,0,0-.789.23.954.954,0,0,0-.255.74.986.986,0,0,0,.259.756,1.125,1.125,0,0,0,.785.238h1.529a2.415,2.415,0,0,1,1.771.607,2.83,2.83,0,0,1,0,3.522,2.4,2.4,0,0,1-1.771.611h-3.966v-1.375Z" transform="translate(-3248.351 -1002.618)" fill="#454a67"/>
        <path id="Path_26" data-name="Path 26" d="M3325.906,1016.5a1.984,1.984,0,0,0-1.436-.436h-1.981v6.673h-1.763v-11h1.763v2.92h2.281a4.44,4.44,0,0,1,1.9.348,2.236,2.236,0,0,1,1.084,1.08,4.4,4.4,0,0,1,.352,1.9v4.756h-1.755v-4.8a1.957,1.957,0,0,0-.441-1.432" transform="translate(-3274.939 -993.271)" fill="#454a67"/>
        <path id="Path_27" data-name="Path 27" d="M3364.915,1030.695a5.181,5.181,0,0,1-6.237,0,5.091,5.091,0,0,1,0-6.289,5.163,5.163,0,0,1,6.237,0,5.088,5.088,0,0,1,0,6.289m-1.3-1.056a3.935,3.935,0,0,0,0-4.178,2.718,2.718,0,0,0-3.631,0,3.93,3.93,0,0,0,0,4.178,2.742,2.742,0,0,0,3.64,0" transform="translate(-3303.029 -1002.125)" fill="#454a67"/>
        <path id="Path_28" data-name="Path 28" d="M3404.328,1030.695a5.181,5.181,0,0,1-6.237,0,5.091,5.091,0,0,1,0-6.289,5.163,5.163,0,0,1,6.237,0,5.088,5.088,0,0,1,0,6.289m-1.3-1.056a3.936,3.936,0,0,0,0-4.178,2.718,2.718,0,0,0-3.631,0,3.932,3.932,0,0,0,0,4.178,2.742,2.742,0,0,0,3.64,0" transform="translate(-3333.06 -1002.125)" fill="#454a67"/>
        <path id="Path_29" data-name="Path 29" d="M3437.72,1025.037a1.5,1.5,0,0,1-.757-.757,3.277,3.277,0,0,1-.238-1.358v-4.351h-1.295V1017.2h1.295v-2.127h1.755v2.127h1.847v1.376h-1.847v4.287a.88.88,0,0,0,1.043,1.043h.771v1.375h-1.215a3.273,3.273,0,0,1-1.359-.239" transform="translate(-3362.339 -995.808)" fill="#454a67"/>
      </g>
    </g>
  </g>
</svg>
